Patient4_TMGait_0pt6_02_right_24_GRF.mot
version=1
nRows=39
nColumns=19
inDegrees=no
endheader
time	F1x	F1y	F1z	M1x	M1y	M1z	F2x	F2y	F2z	M2x	M2y	M2z	EC1x	EC1y	EC1z	EC2x	EC2y	EC2z
28.76	-10.6158	756.4224	61.7394	-245.8494	-68.1127	820.4256	4.9321	-1.2257	-5.2572	1.2055	6.1417	-5.1427	-0.0592	0.0182	-0.0073	-0.0462	0.0165	0.9585
28.7722	-10.6112	750.9919	62.2074	-243.9995	-68.1826	810.0061	3.0949	0.3057	-3.583	1.2851	4.2563	-2.0441	-0.0592	0.0182	-0.0073	-0.0462	0.0165	0.9585
28.7844	-10.0759	745.6235	62.5464	-242.0769	-67.9217	799.4811	1.5666	1.6085	-2.1517	1.3566	2.6485	0.55375	-0.0592	0.0182	-0.0073	-0.0462	0.0165	0.9585
28.7966	-9.1072	740.8956	62.751	-240.2796	-67.3594	789.657	0.41571	2.6269	-1.0486	1.4235	1.4149	2.5448	-0.0592	0.0182	-0.0073	-0.0462	0.0165	0.9585
28.8089	-7.8805	737.2162	62.8307	-238.7641	-66.5659	781.0512	-0.37336	3.3509	-0.28058	1.4825	0.56085	3.9339	-0.0592	0.0182	-0.0073	-0.0462	0.0165	0.9585
28.8211	-6.5359	734.7729	62.7893	-237.6237	-65.5962	773.8568	-0.86979	3.8056	0.19953	1.5265	0.035495	4.7927	-0.0592	0.0182	-0.0073	-0.0462	0.0165	0.9585
28.8333	-5.1484	733.5435	62.6227	-236.8802	-64.4794	768.0017	-1.1594	4.0179	0.45663	1.5423	-0.23153	5.1994	-0.0592	0.0182	-0.0073	-0.0462	0.0165	0.9585
28.8455	-3.7196	733.3331	62.3552	-236.4935	-63.2425	763.1932	-1.3144	3.9811	0.55096	1.5051	-0.30943	5.1894	-0.0592	0.0182	-0.0073	-0.0462	0.0165	0.9585
28.8577	-2.1849	733.8399	61.9805	-236.381	-61.863	759.0262	-1.4036	3.6723	0.54615	1.3832	-0.27044	4.7864	-0.0592	0.0182	-0.0073	-0.0462	0.0165	0.9585
28.8699	-0.43789	734.7046	61.5322	-236.4298	-60.3421	755.05	-1.4611	3.0173	0.48679	1.1313	-0.16913	3.9403	-0.0592	0.0182	-0.0073	-0.0462	0.0165	0.9585
28.8821	1.6494	735.568	61.0102	-236.5207	-58.646	750.8174	-1.5165	1.9453	0.41465	0.70623	-0.050853	2.6035	-0.0592	0.0182	-0.0073	-0.0462	0.0165	0.9585
28.8944	4.1981	736.0991	60.4683	-236.5387	-56.7905	745.9503	-1.5491	0.37705	0.34534	0.067476	0.054553	0.68756	-0.0592	0.0182	-0.0073	-0.0462	0.0165	0.9585
28.9066	7.3255	736.026	59.9287	-236.3848	-54.7618	740.1758	-1.5532	-1.7062	0.29488	-0.80021	0.12328	-1.8175	-0.0592	0.0182	-0.0073	-0.0462	0.0165	0.9585
28.9188	11.0705	735.1447	59.4551	-235.9764	-52.6083	733.3397	-1.464	-4.2405	0.26473	-1.8708	0.12819	-4.8361	-0.0592	0.0182	-0.0073	-0.0462	0.0165	0.9585
28.931	15.4201	733.356	59.0655	-235.2622	-50.3573	725.4278	-1.2168	-6.9736	0.25718	-3.0382	0.034413	-8.0637	-0.0592	0.0182	-0.0073	-0.0462	0.0165	0.9585
28.9432	20.2865	730.6812	58.8195	-234.2271	-48.0949	716.5898	-0.69837	-9.3996	0.26211	-4.0824	-0.1919	-10.9165	-0.0592	0.0182	-0.0073	-0.0462	0.0165	0.9585
28.9554	25.5222	727.2758	58.753	-232.9026	-45.9021	707.1076	0.19424	-10.6312	0.27085	-4.6206	-0.58163	-12.3402	-0.0592	0.0182	-0.0073	-0.0462	0.0165	0.9585
28.9676	30.9617	723.4651	58.9304	-231.3804	-43.8916	697.4195	1.5782	-9.3429	0.26957	-4.0765	-1.1579	-10.759	-0.0592	0.0182	-0.0073	-0.0462	0.0165	0.9585
28.9799	36.4405	719.6513	59.3772	-229.7885	-42.1392	688.0322	3.511	-3.7071	0.2426	-1.658	-1.9147	-3.9913	-0.0592	0.0182	-0.0073	-0.0462	0.0165	0.9585
28.9921	41.7852	716.1056	60.0621	-228.2215	-40.6751	679.298	5.9624	8.5231	0.1685	3.611	-2.7925	10.6304	-0.0592	0.0182	-0.0073	-0.0462	0.0165	0.9585
29.0043	46.8	712.7531	60.857	-226.6673	-39.4519	671.2421	8.7315	29.8157	0.024335	12.7977	-3.6522	36.0321	-0.0592	0.0182	-0.0073	-0.0462	0.0165	0.9585
29.0165	51.2579	708.9242	61.5284	-224.934	-38.3355	663.3191	11.3629	62.3806	-0.20525	26.8586	-4.2578	74.8329	-0.0592	0.0182	-0.0073	-0.0462	0.0165	0.9585
29.0287	54.8851	703.2736	61.7902	-222.6208	-37.1603	654.3555	13.0497	107.3739	-0.53721	46.2947	-4.2326	128.3868	-0.0592	0.0182	-0.0073	-0.0462	0.0165	0.9585
29.0409	57.4217	693.8844	61.3021	-219.1532	-35.7078	642.6216	12.5377	163.6951	-0.9613	70.6317	-3.0623	195.3525	-0.0592	0.0182	-0.0073	-0.0462	0.0165	0.9585
29.0531	58.6512	678.632	59.7571	-213.8948	-33.78	626.1916	8.3456	226.5605	-1.4889	97.8044	-0.15955	270.0112	-0.0592	0.0182	-0.0073	-0.0462	0.0165	0.9585
29.0654	58.4701	655.6958	56.9135	-206.3116	-31.2082	603.3666	0.34994	287.4608	-2.4942	124.1052	4.9063	342.2615	-0.0592	0.0182	-0.0073	-0.0462	0.0165	0.9585
29.0776	56.9262	624.1803	52.7264	-196.1579	-27.9578	573.2442	-9.4044	337.7982	-5.1055	145.8043	12.3583	401.7388	-0.0592	0.0182	-0.0073	-0.0462	0.0165	0.9585
29.0898	54.211	584.4043	47.3916	-183.5452	-24.1476	535.9933	-18.9328	375.5847	-9.0953	161.9902	21.1229	445.8089	-0.0592	0.0182	-0.0073	-0.0462	0.0165	0.9585
29.102	50.5805	537.4446	41.4069	-168.7887	-20.1236	492.4972	-26.9964	403.986	-14.0924	174.0192	30.2886	478.0335	-0.0592	0.0182	-0.0073	-0.0462	0.0165	0.9585
29.1142	46.3305	484.7418	35.3309	-152.2996	-16.2547	443.9728	-32.9175	427.658	-19.436	183.9428	38.8498	503.8795	-0.0592	0.0182	-0.0073	-0.0462	0.0165	0.9585
29.1264	41.6078	428.0297	29.5507	-134.5789	-12.8	391.9497	-36.6762	450.8806	-24.5484	193.6504	46.1614	528.4541	-0.0592	0.0182	-0.0073	-0.0462	0.0165	0.9585
29.1386	36.4603	369.2829	24.3214	-116.2068	-9.9443	338.1836	-38.5748	476.4145	-28.992	204.3809	51.8615	555.0729	-0.0592	0.0182	-0.0073	-0.0462	0.0165	0.9585
29.1509	30.8538	310.5774	19.7418	-97.8077	-7.7724	284.5529	-39.0081	505.6817	-32.6211	216.7471	55.9863	585.4474	-0.0592	0.0182	-0.0073	-0.0462	0.0165	0.9585
29.1631	24.8002	254.0222	15.8615	-80.0306	-6.3224	232.9642	-38.5005	539.0214	-35.6979	230.8655	59.0522	620.0676	-0.0592	0.0182	-0.0073	-0.0462	0.0165	0.9585
29.1753	18.4713	201.6257	12.6595	-63.5066	-5.528	185.2186	-37.5616	575.9853	-38.5372	246.4881	61.6534	658.5028	-0.0592	0.0182	-0.0073	-0.0462	0.0165	0.9585
29.1875	12.1994	155.0061	10.0919	-48.761	-5.2516	142.7608	-36.6623	615.4068	-41.5572	263.047	64.4444	699.5119	-0.0592	0.0182	-0.0073	-0.0462	0.0165	0.9585
29.1997	6.4619	115.1684	8.0577	-36.1373	-5.2608	106.4508	-36.1824	655.5523	-44.9413	279.7516	67.793	741.1801	-0.0592	0.0182	-0.0073	-0.0462	0.0165	0.9585
29.2119	1.6579	82.367	6.4331	-25.741	-5.3274	76.507	-36.3257	694.5356	-48.8335	295.7648	71.9121	781.4109	-0.0592	0.0182	-0.0073	-0.0462	0.0165	0.9585
29.2241	-1.9354	56.2288	5.0903	-17.4732	-5.2572	52.5745	-37.0214	730.7576	-53.0115	310.3957	76.5243	818.3998	-0.0592	0.0182	-0.0073	-0.0462	0.0165	0.9585
